<svg xmlns="http://www.w3.org/2000/svg" viewBox="0 0 878.97 218.03"><g id="Layer_2" data-name="Layer 2"><g id="Layer_1-2" data-name="Layer 1"><polygon points="187.18 164.44 97.18 217.13 97.18 112.95 187.18 60.26 187.18 164.44" style="fill:#ebebeb"/><polygon points="187.11 60.51 96.29 113.53 3.67 61.7 94.49 8.68 187.11 60.51" style="fill:#fff"/><polygon points="97.58 113.44 97.98 216.89 4.97 164.82 4.56 61.37 97.58 113.44" style="fill:#fafafa"/></g><g id="Layer_5" data-name="Layer 5"><line x1="7.06" y1="168.77" x2="9.95" y2="163.51" style="fill:none;stroke:#ccc;stroke-miterlimit:10;stroke-width:3px"/><line x1="12.31" y1="159.21" x2="91.54" y2="15.11" style="fill:none;stroke:#ccc;stroke-miterlimit:10;stroke-width:3px;stroke-dasharray:11.780815124511719,4.90867280960083"/><line x1="92.72" y1="12.96" x2="95.61" y2="7.7" style="fill:none;stroke:#ccc;stroke-miterlimit:10;stroke-width:3px"/><line x1="128.34" y1="199.57" x2="127.36" y2="193.65" style="fill:none;stroke:#ccc;stroke-miterlimit:10;stroke-width:3px"/><line x1="126.57" y1="188.93" x2="97.63" y2="14.7" style="fill:none;stroke:#ccc;stroke-miterlimit:10;stroke-width:3px;stroke-dasharray:11.487283706665039,4.786368370056152"/><line x1="97.24" y1="12.34" x2="96.25" y2="6.42" style="fill:none;stroke:#ccc;stroke-miterlimit:10;stroke-width:3px"/><line x1="59.68" y1="197" x2="62.39" y2="191.65" style="fill:none;stroke:#ccc;stroke-miterlimit:10;stroke-width:3px"/><line x1="64.6" y1="187.28" x2="138.64" y2="40.91" style="fill:none;stroke:#ccc;stroke-miterlimit:10;stroke-width:3px;stroke-dasharray:11.751670837402344,4.896529674530029"/><line x1="139.75" y1="38.72" x2="142.46" y2="33.37" style="fill:none;stroke:#ccc;stroke-miterlimit:10;stroke-width:3px"/><line x1="39.79" y1="37.86" x2="45.21" y2="40.42" style="fill:none;stroke:#ccc;stroke-miterlimit:10;stroke-width:3px"/><line x1="49.56" y1="42.47" x2="180.42" y2="104.22" style="fill:none;stroke:#ccc;stroke-miterlimit:10;stroke-width:3px;stroke-dasharray:11.537068367004395,4.807111740112305"/><line x1="182.59" y1="105.24" x2="188.02" y2="107.8" style="fill:none;stroke:#ccc;stroke-miterlimit:10;stroke-width:3px"/><line x1="166.84" y1="72.51" x2="168.14" y2="78.37" style="fill:none;stroke:#ccc;stroke-miterlimit:10;stroke-width:3px"/><line x1="169.15" y1="82.94" x2="185.89" y2="158.38" style="fill:none;stroke:#ccc;stroke-miterlimit:10;stroke-width:3px;stroke-dasharray:11.239151000976562,4.682979583740234"/><line x1="186.4" y1="160.66" x2="187.7" y2="166.52" style="fill:none;stroke:#ccc;stroke-miterlimit:10;stroke-width:3px"/><line x1="3.85" y1="104.6" x2="9.56" y2="106.45" style="fill:none;stroke:#ccc;stroke-miterlimit:10;stroke-width:3px"/><line x1="14.53" y1="108.07" x2="181.11" y2="162.25" style="fill:none;stroke:#ccc;stroke-miterlimit:10;stroke-width:3px;stroke-dasharray:12.5494384765625,5.2289323806762695"/><line x1="183.59" y1="163.06" x2="189.3" y2="164.92" style="fill:none;stroke:#ccc;stroke-miterlimit:10;stroke-width:3px"/><line x1="188.02" y1="107.8" x2="183.09" y2="111.23" style="fill:none;stroke:#ccc;stroke-miterlimit:10;stroke-width:3px"/><line x1="178.89" y1="114.15" x2="66.71" y2="192.12" style="fill:none;stroke:#ccc;stroke-miterlimit:10;stroke-width:3px;stroke-dasharray:12.280027389526367,5.116678237915039"/><line x1="64.6" y1="193.58" x2="59.68" y2="197" style="fill:none;stroke:#ccc;stroke-miterlimit:10;stroke-width:3px"/><line x1="4.49" y1="168.77" x2="9.67" y2="165.73" style="fill:none;stroke:#ccc;stroke-miterlimit:10;stroke-width:3px"/><line x1="13.75" y1="163.34" x2="108.93" y2="107.54" style="fill:none;stroke:#ccc;stroke-miterlimit:10;stroke-width:3px;stroke-dasharray:11.363714218139648,4.7348809242248535"/><line x1="110.97" y1="106.35" x2="116.15" y2="103.31" style="fill:none;stroke:#ccc;stroke-miterlimit:10;stroke-width:3px"/><line x1="39.79" y1="39.79" x2="40.55" y2="45.74" style="fill:none;stroke:#ccc;stroke-miterlimit:10;stroke-width:3px"/><line x1="41.22" y1="50.98" x2="59.22" y2="190.99" style="fill:none;stroke:#ccc;stroke-miterlimit:10;stroke-width:3px;stroke-dasharray:12.689005851745605,5.287086009979248"/><line x1="59.55" y1="193.62" x2="60.32" y2="199.57" style="fill:none;stroke:#ccc;stroke-miterlimit:10;stroke-width:3px"/><line x1="4.49" y1="60.32" x2="97.86" y2="113.9" style="fill:none;stroke:#6d6d6d;stroke-miterlimit:10;stroke-width:3px"/><line x1="97.22" y1="215.93" x2="98.18" y2="112.94" style="fill:none;stroke:#6d6d6d;stroke-miterlimit:10;stroke-width:3px"/><line x1="187.34" y1="60.27" x2="141.82" y2="33.99" style="fill:none;stroke:#6d6d6d;stroke-miterlimit:10;stroke-width:3px"/><line x1="186.73" y1="108.45" x2="186.73" y2="59.68" style="fill:none;stroke:#6d6d6d;stroke-miterlimit:10;stroke-width:3px"/><line x1="128.98" y1="198.93" x2="96.67" y2="216.69" style="fill:none;stroke:#6d6d6d;stroke-miterlimit:10;stroke-width:3px"/><line x1="59.68" y1="197" x2="97.58" y2="216.69" style="fill:none;stroke:#6d6d6d;stroke-miterlimit:10;stroke-width:3px"/><line x1="165.88" y1="72.83" x2="187.05" y2="60" style="fill:none;stroke:#6d6d6d;stroke-miterlimit:10;stroke-width:3px"/><line x1="4.17" y1="104.92" x2="4.56" y2="59.72" style="fill:none;stroke:#6d6d6d;stroke-miterlimit:10;stroke-width:3px"/><line x1="40.99" y1="39.23" x2="4.26" y2="60.44" style="fill:none;stroke:#6d6d6d;stroke-miterlimit:10;stroke-width:3px"/><line x1="98.04" y1="113.56" x2="108.77" y2="107.48" style="fill:none;stroke:#6d6d6d;stroke-miterlimit:10;stroke-width:3px"/></g><g id="Layer_4" data-name="Layer 4"><circle cx="7.38" cy="168.44" r="7.38" style="fill:#00505c"/><circle cx="95.93" cy="7.38" r="7.38" style="fill:#00505c"/><circle cx="112.62" cy="104.92" r="7.38" style="fill:#00505c"/><circle cx="4.17" cy="104.28" r="4.17" style="fill:#00505c"/><circle cx="40.11" cy="38.82" r="4.81" style="fill:#00505c"/><circle cx="189.3" cy="164.92" r="7.7" style="fill:#00505c"/><circle cx="187.37" cy="107.8" r="4.49" style="fill:#00505c"/><circle cx="166.84" cy="72.51" r="4.49" style="fill:#00505c"/><circle cx="129.3" cy="199.25" r="5.45" style="fill:#00505c"/><circle cx="59.68" cy="197" r="5.78" style="fill:#00505c"/><circle cx="142.46" cy="33.37" r="6.42" style="fill:#00505c"/></g><g id="Layer_3" data-name="Layer 3"><text transform="translate(239.35 155.95)" style="font-size:133.3106231689453px;fill:#4d4d4d;font-family:Cabin-Bold, Cabin;font-weight:700;letter-spacing:-0.024990828859361918em">O<tspan x="97.98" y="0" style="letter-spacing:-0.01799867111459834em">pen</tspan></text><text transform="translate(549.81 156.44)" style="font-size:98.10884857177734px;fill:#00505c;font-family:Cabin-Regular, Cabin">NEURO</text></g></g></svg>