<svg xmlns="http://www.w3.org/2000/svg" viewBox="0 0 875.04 218.02"><g id="Layer_2" data-name="Layer 2"><g id="Layer_1-2" data-name="Layer 1"><g id="Layer_2-2" data-name="Layer 2"><g id="Layer_1-2-2" data-name="Layer 1-2"><polygon points="187.18 164.44 97.18 217.13 97.18 112.95 187.18 60.26 187.18 164.44" style="fill:#ebebeb"/><polygon points="187.11 60.51 96.29 113.53 3.67 61.7 94.49 8.68 187.11 60.51" style="fill:#fff"/><polygon points="97.58 113.44 97.98 216.89 4.97 164.82 4.56 61.37 97.58 113.44" style="fill:#fafafa"/></g><g id="Layer_5" data-name="Layer 5"><line x1="7.06" y1="168.77" x2="9.95" y2="163.51" style="fill:none;stroke:#ccc;stroke-miterlimit:10;stroke-width:3px"/><line x1="12.31" y1="159.21" x2="91.54" y2="15.11" style="fill:none;stroke:#ccc;stroke-miterlimit:10;stroke-width:3px;stroke-dasharray:11.780815124511719,4.90867280960083"/><line x1="92.72" y1="12.96" x2="95.61" y2="7.7" style="fill:none;stroke:#ccc;stroke-miterlimit:10;stroke-width:3px"/><line x1="128.34" y1="199.57" x2="127.36" y2="193.65" style="fill:none;stroke:#ccc;stroke-miterlimit:10;stroke-width:3px"/><line x1="126.57" y1="188.93" x2="97.63" y2="14.7" style="fill:none;stroke:#ccc;stroke-miterlimit:10;stroke-width:3px;stroke-dasharray:11.487283706665039,4.786368370056152"/><line x1="97.24" y1="12.34" x2="96.25" y2="6.42" style="fill:none;stroke:#ccc;stroke-miterlimit:10;stroke-width:3px"/><line x1="59.68" y1="197" x2="62.39" y2="191.65" style="fill:none;stroke:#ccc;stroke-miterlimit:10;stroke-width:3px"/><line x1="64.6" y1="187.28" x2="138.64" y2="40.91" style="fill:none;stroke:#ccc;stroke-miterlimit:10;stroke-width:3px;stroke-dasharray:11.751670837402344,4.896529674530029"/><line x1="139.75" y1="38.72" x2="142.46" y2="33.37" style="fill:none;stroke:#ccc;stroke-miterlimit:10;stroke-width:3px"/><line x1="39.79" y1="37.86" x2="45.21" y2="40.42" style="fill:none;stroke:#ccc;stroke-miterlimit:10;stroke-width:3px"/><line x1="49.56" y1="42.47" x2="180.42" y2="104.22" style="fill:none;stroke:#ccc;stroke-miterlimit:10;stroke-width:3px;stroke-dasharray:11.537068367004395,4.807111740112305"/><line x1="182.59" y1="105.24" x2="188.02" y2="107.8" style="fill:none;stroke:#ccc;stroke-miterlimit:10;stroke-width:3px"/><line x1="166.84" y1="72.51" x2="168.14" y2="78.37" style="fill:none;stroke:#ccc;stroke-miterlimit:10;stroke-width:3px"/><line x1="169.15" y1="82.94" x2="185.89" y2="158.38" style="fill:none;stroke:#ccc;stroke-miterlimit:10;stroke-width:3px;stroke-dasharray:11.239151000976562,4.682979583740234"/><line x1="186.4" y1="160.66" x2="187.7" y2="166.52" style="fill:none;stroke:#ccc;stroke-miterlimit:10;stroke-width:3px"/><line x1="3.85" y1="104.6" x2="9.56" y2="106.45" style="fill:none;stroke:#ccc;stroke-miterlimit:10;stroke-width:3px"/><line x1="14.53" y1="108.07" x2="181.11" y2="162.25" style="fill:none;stroke:#ccc;stroke-miterlimit:10;stroke-width:3px;stroke-dasharray:12.5494384765625,5.2289323806762695"/><line x1="183.59" y1="163.06" x2="189.3" y2="164.92" style="fill:none;stroke:#ccc;stroke-miterlimit:10;stroke-width:3px"/><line x1="188.02" y1="107.8" x2="183.09" y2="111.23" style="fill:none;stroke:#ccc;stroke-miterlimit:10;stroke-width:3px"/><line x1="178.89" y1="114.15" x2="66.71" y2="192.12" style="fill:none;stroke:#ccc;stroke-miterlimit:10;stroke-width:3px;stroke-dasharray:12.280027389526367,5.116678237915039"/><line x1="64.6" y1="193.58" x2="59.68" y2="197" style="fill:none;stroke:#ccc;stroke-miterlimit:10;stroke-width:3px"/><line x1="4.49" y1="168.77" x2="9.67" y2="165.73" style="fill:none;stroke:#ccc;stroke-miterlimit:10;stroke-width:3px"/><line x1="13.75" y1="163.34" x2="108.93" y2="107.54" style="fill:none;stroke:#ccc;stroke-miterlimit:10;stroke-width:3px;stroke-dasharray:11.363714218139648,4.7348809242248535"/><line x1="110.97" y1="106.35" x2="116.15" y2="103.31" style="fill:none;stroke:#ccc;stroke-miterlimit:10;stroke-width:3px"/><line x1="39.79" y1="39.79" x2="40.55" y2="45.74" style="fill:none;stroke:#ccc;stroke-miterlimit:10;stroke-width:3px"/><line x1="41.22" y1="50.98" x2="59.22" y2="190.99" style="fill:none;stroke:#ccc;stroke-miterlimit:10;stroke-width:3px;stroke-dasharray:12.689005851745605,5.287086009979248"/><line x1="59.55" y1="193.62" x2="60.32" y2="199.57" style="fill:none;stroke:#ccc;stroke-miterlimit:10;stroke-width:3px"/><line x1="4.49" y1="60.32" x2="97.86" y2="113.9" style="fill:none;stroke:#6d6d6d;stroke-miterlimit:10;stroke-width:3px"/><line x1="97.22" y1="215.93" x2="98.18" y2="112.94" style="fill:none;stroke:#6d6d6d;stroke-miterlimit:10;stroke-width:3px"/><line x1="187.34" y1="60.27" x2="141.82" y2="33.99" style="fill:none;stroke:#6d6d6d;stroke-miterlimit:10;stroke-width:3px"/><line x1="186.73" y1="108.45" x2="186.73" y2="59.68" style="fill:none;stroke:#6d6d6d;stroke-miterlimit:10;stroke-width:3px"/><line x1="128.98" y1="198.93" x2="96.67" y2="216.69" style="fill:none;stroke:#6d6d6d;stroke-miterlimit:10;stroke-width:3px"/><line x1="59.68" y1="197" x2="97.58" y2="216.69" style="fill:none;stroke:#6d6d6d;stroke-miterlimit:10;stroke-width:3px"/><line x1="165.88" y1="72.83" x2="187.05" y2="60" style="fill:none;stroke:#6d6d6d;stroke-miterlimit:10;stroke-width:3px"/><line x1="4.17" y1="104.92" x2="4.56" y2="59.72" style="fill:none;stroke:#6d6d6d;stroke-miterlimit:10;stroke-width:3px"/><line x1="40.99" y1="39.23" x2="4.26" y2="60.44" style="fill:none;stroke:#6d6d6d;stroke-miterlimit:10;stroke-width:3px"/><line x1="98.04" y1="113.56" x2="108.77" y2="107.48" style="fill:none;stroke:#6d6d6d;stroke-miterlimit:10;stroke-width:3px"/></g><g id="Layer_4" data-name="Layer 4"><circle cx="7.38" cy="168.44" r="7.38" style="fill:#37bcd2"/><circle cx="95.93" cy="7.38" r="7.38" style="fill:#37bcd2"/><circle cx="112.62" cy="104.92" r="7.38" style="fill:#37bcd2"/><circle cx="4.17" cy="104.28" r="4.17" style="fill:#37bcd2"/><circle cx="40.11" cy="38.82" r="4.81" style="fill:#37bcd2"/><circle cx="189.3" cy="164.92" r="7.7" style="fill:#37bcd2"/><circle cx="187.37" cy="107.8" r="4.49" style="fill:#37bcd2"/><circle cx="166.84" cy="72.51" r="4.49" style="fill:#37bcd2"/><circle cx="129.3" cy="199.25" r="5.45" style="fill:#37bcd2"/><circle cx="59.68" cy="197" r="5.78" style="fill:#37bcd2"/><circle cx="142.46" cy="33.37" r="6.42" style="fill:#37bcd2"/></g><g id="Layer_3" data-name="Layer 3"><g style="isolation:isolate"><g style="isolation:isolate"><path d="M266.35,151.75A42.65,42.65,0,0,1,250,134.69q-5.94-11-5.93-25.4T250,83.9a42.67,42.67,0,0,1,16.4-17.07,49.22,49.22,0,0,1,47.32,0,42.74,42.74,0,0,1,16.4,17.07q5.93,11,5.93,25.39t-5.93,25.4a42.71,42.71,0,0,1-16.4,17.06,49.15,49.15,0,0,1-47.32,0Zm44.52-19.26q7.26-8.81,7.27-23.2T310.87,86.1q-7.26-8.8-20.86-8.8t-20.86,8.8q-7.27,8.79-7.27,23.19t7.27,23.2q7.26,8.79,20.86,8.8T310.87,132.49Z" style="fill:#fff"/></g><g style="isolation:isolate"><path d="M396.12,92.89a29.1,29.1,0,0,1,10.26,12.54,45,45,0,0,1,0,34.66,29.08,29.08,0,0,1-10.26,12.53,28,28,0,0,1-16.26,4.66,35.86,35.86,0,0,1-10.2-1.26,27.14,27.14,0,0,1-8.07-4.07v36.26H345.06V89.29h13.33l1.74,6.14a31.31,31.31,0,0,1,8.93-5.4,29.89,29.89,0,0,1,10.8-1.8A28,28,0,0,1,396.12,92.89ZM388.79,138q4.13-5.73,4.13-15.19t-4.13-15.2a13.36,13.36,0,0,0-11.47-5.73q-8.26,0-12.39,5.59t-4.14,15.34q0,9.72,4.14,15.33t12.39,5.6A13.34,13.34,0,0,0,388.79,138Z" style="fill:#fff"/><path d="M431.38,152.55a30.52,30.52,0,0,1-12.26-12.66,38.06,38.06,0,0,1-4.07-17.67,37.56,37.56,0,0,1,3.87-17.06,30.18,30.18,0,0,1,11.19-12.33,32.17,32.17,0,0,1,17.47-4.6q9.33,0,15.79,3.86a25,25,0,0,1,9.74,10.4,32.47,32.47,0,0,1,3.26,14.67,44.47,44.47,0,0,1-1.06,9.06H432.25q1.32,8.81,6.93,13.13a21.33,21.33,0,0,0,13.46,4.34,38.4,38.4,0,0,0,20-5.47l.8,14a43.36,43.36,0,0,1-9.93,3.66,51,51,0,0,1-12.33,1.4Q439.57,157.28,431.38,152.55ZM459.57,115a15.09,15.09,0,0,0-2.93-9.19c-1.95-2.67-5-4-9.06-4a13.62,13.62,0,0,0-9.87,3.6,18.43,18.43,0,0,0-5.06,9.59Z" style="fill:#fff"/><path d="M537.83,96.49q6.39,8.27,6.4,22.27V156H527.7V120.09q0-9.33-3.14-13.8t-10.06-4.46A15.79,15.79,0,0,0,502,107.56V156H485.44V89.29H500.9l.27,4.67A31.14,31.14,0,0,1,519,88.23Q531.43,88.23,537.83,96.49Z" style="fill:#fff"/></g></g><g style="isolation:isolate"><path d="M557.66,87.76h10.1l33.85,51.41V87.76H611v68.68h-7.95L567,102.19v54.25h-9.32Z" style="fill:#37bcd2"/><path d="M626.73,87.76h41.89V96.2H636.05v20.11H662v8.44h-25.9V148H669.5v8.44H626.73Z" style="fill:#37bcd2"/><path d="M687.41,149.82q-7.12-8-7.12-22.52V87.76h9.32v37q0,11.28,4,18t15.1,6.67q11.09,0,15.11-6.72t4-17.91v-37h9.32V127.3q0,14.52-7.12,22.52t-21.34,8Q694.52,157.81,687.41,149.82Z" style="fill:#37bcd2"/><path d="M752.11,87.76h22.27q11.18,0,17.46,5.15t6.28,15.75q0,13.74-12,19.33l15.4,28.45H790.17l-13.93-26.78H761.92v26.78h-9.81Zm22.17,33.56q6.87,0,10.5-3.34t3.63-9.32q0-6-3.58-9.27T774.28,96.1H761.92v25.22Z" style="fill:#37bcd2"/><path d="M823.68,153.4a30.71,30.71,0,0,1-12-12.51,39.33,39.33,0,0,1-4.32-18.79,39.33,39.33,0,0,1,4.32-18.79,30.75,30.75,0,0,1,12-12.5,36.89,36.89,0,0,1,35,0,30.75,30.75,0,0,1,12,12.5A39.33,39.33,0,0,1,875,122.1a39.33,39.33,0,0,1-4.32,18.79,30.71,30.71,0,0,1-12,12.51,37,37,0,0,1-35,0Zm30.56-8.1a21.54,21.54,0,0,0,8.09-9.51,36,36,0,0,0,0-27.37,21.51,21.51,0,0,0-8.09-9.52,26.21,26.21,0,0,0-26.1,0,21.45,21.45,0,0,0-8.09,9.52,36,36,0,0,0,0,27.37,21.48,21.48,0,0,0,8.09,9.51,26.14,26.14,0,0,0,26.1,0Z" style="fill:#37bcd2"/></g></g></g></g></g></svg>