<svg xmlns="http://www.w3.org/2000/svg" viewBox="0 0 639.61 530.7"><g id="Layer_2" data-name="Layer 2"><g id="Layer_1-2" data-name="Layer 1"><polygon points="460.89 256.25 320.62 338.36 320.62 176.01 460.89 93.9 460.89 256.25" style="fill:#ebebeb"/><polygon points="460.77 94.3 319.24 176.92 174.91 96.15 316.44 13.53 460.77 94.3" style="fill:#fff"/><polygon points="321.24 176.78 321.88 337.99 176.93 256.85 176.3 95.64 321.24 176.78" style="fill:#fafafa"/></g><g id="Layer_5" data-name="Layer 5"><line x1="180.19" y1="263" x2="183.08" y2="257.74" style="fill:none;stroke:#ccc;stroke-miterlimit:10;stroke-width:3px"/><line x1="185.46" y1="253.4" x2="314.1" y2="19.43" style="fill:none;stroke:#ccc;stroke-miterlimit:10;stroke-width:3px;stroke-dasharray:11.888879776000977,4.953700065612793"/><line x1="315.29" y1="17.26" x2="318.19" y2="12" style="fill:none;stroke:#ccc;stroke-miterlimit:10;stroke-width:3px"/><line x1="369.19" y1="311" x2="368.2" y2="305.08" style="fill:none;stroke:#ccc;stroke-miterlimit:10;stroke-width:3px"/><line x1="367.39" y1="300.16" x2="320.58" y2="18.38" style="fill:none;stroke:#ccc;stroke-miterlimit:10;stroke-width:3px;stroke-dasharray:11.96426773071289,4.985111713409424"/><line x1="320.17" y1="15.92" x2="319.19" y2="10" style="fill:none;stroke:#ccc;stroke-miterlimit:10;stroke-width:3px"/><line x1="262.19" y1="307" x2="264.89" y2="301.65" style="fill:none;stroke:#ccc;stroke-miterlimit:10;stroke-width:3px"/><line x1="267.12" y1="297.24" x2="387.36" y2="59.56" style="fill:none;stroke:#ccc;stroke-miterlimit:10;stroke-width:3px;stroke-dasharray:11.860186576843262,4.941744327545166"/><line x1="388.48" y1="57.35" x2="391.19" y2="52" style="fill:none;stroke:#ccc;stroke-miterlimit:10;stroke-width:3px"/><line x1="231.19" y1="59" x2="236.61" y2="61.56" style="fill:none;stroke:#ccc;stroke-miterlimit:10;stroke-width:3px"/><line x1="241.14" y1="63.7" x2="454.49" y2="164.37" style="fill:none;stroke:#ccc;stroke-miterlimit:10;stroke-width:3px;stroke-dasharray:12.020994186401367,5.008747577667236"/><line x1="456.76" y1="165.44" x2="462.19" y2="168" style="fill:none;stroke:#ccc;stroke-miterlimit:10;stroke-width:3px"/><line x1="429.19" y1="113" x2="430.48" y2="118.86" style="fill:none;stroke:#ccc;stroke-miterlimit:10;stroke-width:3px"/><line x1="431.55" y1="123.64" x2="459.86" y2="251.25" style="fill:none;stroke:#ccc;stroke-miterlimit:10;stroke-width:3px;stroke-dasharray:11.74992847442627,4.895803451538086"/><line x1="460.39" y1="253.64" x2="461.69" y2="259.5" style="fill:none;stroke:#ccc;stroke-miterlimit:10;stroke-width:3px"/><line x1="175.19" y1="163" x2="180.89" y2="164.86" style="fill:none;stroke:#ccc;stroke-miterlimit:10;stroke-width:3px"/><line x1="185.61" y1="166.39" x2="456.12" y2="254.38" style="fill:none;stroke:#ccc;stroke-miterlimit:10;stroke-width:3px;stroke-dasharray:11.914405822753906,4.964335918426514"/><line x1="458.48" y1="255.14" x2="464.19" y2="257" style="fill:none;stroke:#ccc;stroke-miterlimit:10;stroke-width:3px"/><line x1="462.19" y1="168" x2="457.26" y2="171.42" style="fill:none;stroke:#ccc;stroke-miterlimit:10;stroke-width:3px"/><line x1="453.05" y1="174.35" x2="269.22" y2="302.11" style="fill:none;stroke:#ccc;stroke-miterlimit:10;stroke-width:3px;stroke-dasharray:12.295169830322266,5.122987270355225"/><line x1="267.11" y1="303.58" x2="262.19" y2="307" style="fill:none;stroke:#ccc;stroke-miterlimit:10;stroke-width:3px"/><line x1="176.19" y1="263" x2="181.36" y2="259.97" style="fill:none;stroke:#ccc;stroke-miterlimit:10;stroke-width:3px"/><line x1="185.62" y1="257.47" x2="342.88" y2="165.28" style="fill:none;stroke:#ccc;stroke-miterlimit:10;stroke-width:3px;stroke-dasharray:11.855802536010742,4.93991756439209"/><line x1="345.01" y1="164.03" x2="350.19" y2="161" style="fill:none;stroke:#ccc;stroke-miterlimit:10;stroke-width:3px"/><line x1="231.19" y1="62" x2="231.95" y2="67.95" style="fill:none;stroke:#ccc;stroke-miterlimit:10;stroke-width:3px"/><line x1="232.58" y1="72.83" x2="262.11" y2="302.61" style="fill:none;stroke:#ccc;stroke-miterlimit:10;stroke-width:3px;stroke-dasharray:11.804829597473145,4.918679237365723"/><line x1="262.42" y1="305.05" x2="263.19" y2="311" style="fill:none;stroke:#ccc;stroke-miterlimit:10;stroke-width:3px"/><line x1="176.19" y1="94" x2="321.69" y2="177.5" style="fill:none;stroke:#6d6d6d;stroke-miterlimit:10;stroke-width:3px"/><line x1="320.69" y1="336.5" x2="322.18" y2="176" style="fill:none;stroke:#6d6d6d;stroke-miterlimit:10;stroke-width:3px"/><line x1="461.13" y1="93.92" x2="390.2" y2="52.97" style="fill:none;stroke:#6d6d6d;stroke-miterlimit:10;stroke-width:3px"/><line x1="460.19" y1="169" x2="460.19" y2="93" style="fill:none;stroke:#6d6d6d;stroke-miterlimit:10;stroke-width:3px"/><line x1="370.19" y1="310" x2="319.83" y2="337.69" style="fill:none;stroke:#6d6d6d;stroke-miterlimit:10;stroke-width:3px"/><line x1="262.19" y1="307" x2="321.25" y2="337.69" style="fill:none;stroke:#6d6d6d;stroke-miterlimit:10;stroke-width:3px"/><line x1="427.69" y1="113.5" x2="460.69" y2="93.5" style="fill:none;stroke:#6d6d6d;stroke-miterlimit:10;stroke-width:3px"/><line x1="175.69" y1="163.5" x2="176.3" y2="93.07" style="fill:none;stroke:#6d6d6d;stroke-miterlimit:10;stroke-width:3px"/><line x1="233.06" y1="61.13" x2="175.82" y2="94.18" style="fill:none;stroke:#6d6d6d;stroke-miterlimit:10;stroke-width:3px"/><line x1="321.98" y1="176.97" x2="338.69" y2="167.5" style="fill:none;stroke:#6d6d6d;stroke-miterlimit:10;stroke-width:3px"/></g><g id="Layer_4" data-name="Layer 4"><circle cx="180.69" cy="262.5" r="11.5" style="fill:#37bcd2"/><circle cx="318.69" cy="11.5" r="11.5" style="fill:#37bcd2"/><circle cx="344.69" cy="163.5" r="11.5" style="fill:#37bcd2"/><circle cx="175.69" cy="162.5" r="6.5" style="fill:#37bcd2"/><circle cx="231.69" cy="60.5" r="7.5" style="fill:#37bcd2"/><circle cx="464.19" cy="257" r="12" style="fill:#37bcd2"/><circle cx="461.19" cy="168" r="7" style="fill:#37bcd2"/><circle cx="429.19" cy="113" r="7" style="fill:#37bcd2"/><circle cx="370.69" cy="310.5" r="8.5" style="fill:#37bcd2"/><circle cx="262.19" cy="307" r="9" style="fill:#37bcd2"/><circle cx="391.19" cy="52" r="10" style="fill:#37bcd2"/></g><g id="Layer_3" data-name="Layer 3"><text transform="translate(0 488.84)" style="font-size:133.3106231689453px;fill:#fff;font-family:Cabin-Bold, Cabin;font-weight:700;letter-spacing:-0.024990828859361918em">O<tspan x="97.98" y="0" style="letter-spacing:-0.01799867111459834em">pen</tspan></text><text transform="translate(310.46 489.33)" style="font-size:98.10884857177734px;fill:#37bcd2;font-family:Cabin-Regular, Cabin">NEURO</text></g></g></svg>