<svg xmlns="http://www.w3.org/2000/svg" viewBox="0 0 631.02 521.1"><g id="Layer_2" data-name="Layer 2"><g id="Layer_1-2" data-name="Layer 1"><g id="Layer_2-2" data-name="Layer 2"><g id="Layer_1-2-2" data-name="Layer 1-2"><polygon points="456.22 256.25 315.95 338.36 315.95 176.01 456.22 93.9 456.22 256.25" style="fill:#ebebeb"/><polygon points="456.1 94.3 314.57 176.92 170.24 96.15 311.77 13.53 456.1 94.3" style="fill:#fff"/><polygon points="316.57 176.78 317.21 337.99 172.26 256.85 171.63 95.64 316.57 176.78" style="fill:#fafafa"/></g><g id="Layer_5" data-name="Layer 5"><line x1="175.52" y1="263" x2="178.41" y2="257.74" style="fill:none;stroke:#ccc;stroke-miterlimit:10;stroke-width:3px"/><line x1="180.79" y1="253.4" x2="309.43" y2="19.43" style="fill:none;stroke:#ccc;stroke-miterlimit:10;stroke-width:3px;stroke-dasharray:11.888879776000977,4.953700065612793"/><line x1="310.62" y1="17.26" x2="313.52" y2="12" style="fill:none;stroke:#ccc;stroke-miterlimit:10;stroke-width:3px"/><line x1="364.52" y1="311" x2="363.53" y2="305.08" style="fill:none;stroke:#ccc;stroke-miterlimit:10;stroke-width:3px"/><line x1="362.72" y1="300.16" x2="315.91" y2="18.38" style="fill:none;stroke:#ccc;stroke-miterlimit:10;stroke-width:3px;stroke-dasharray:11.96426773071289,4.985111713409424"/><line x1="315.5" y1="15.92" x2="314.52" y2="10" style="fill:none;stroke:#ccc;stroke-miterlimit:10;stroke-width:3px"/><line x1="257.52" y1="307" x2="260.22" y2="301.65" style="fill:none;stroke:#ccc;stroke-miterlimit:10;stroke-width:3px"/><line x1="262.45" y1="297.24" x2="382.69" y2="59.56" style="fill:none;stroke:#ccc;stroke-miterlimit:10;stroke-width:3px;stroke-dasharray:11.860186576843262,4.941744327545166"/><line x1="383.81" y1="57.35" x2="386.52" y2="52" style="fill:none;stroke:#ccc;stroke-miterlimit:10;stroke-width:3px"/><line x1="226.52" y1="59" x2="231.94" y2="61.56" style="fill:none;stroke:#ccc;stroke-miterlimit:10;stroke-width:3px"/><line x1="236.47" y1="63.7" x2="449.82" y2="164.37" style="fill:none;stroke:#ccc;stroke-miterlimit:10;stroke-width:3px;stroke-dasharray:12.020994186401367,5.008747577667236"/><line x1="452.09" y1="165.44" x2="457.52" y2="168" style="fill:none;stroke:#ccc;stroke-miterlimit:10;stroke-width:3px"/><line x1="424.52" y1="113" x2="425.81" y2="118.86" style="fill:none;stroke:#ccc;stroke-miterlimit:10;stroke-width:3px"/><line x1="426.88" y1="123.64" x2="455.19" y2="251.25" style="fill:none;stroke:#ccc;stroke-miterlimit:10;stroke-width:3px;stroke-dasharray:11.74992847442627,4.895803451538086"/><line x1="455.72" y1="253.64" x2="457.02" y2="259.5" style="fill:none;stroke:#ccc;stroke-miterlimit:10;stroke-width:3px"/><line x1="170.52" y1="163" x2="176.22" y2="164.86" style="fill:none;stroke:#ccc;stroke-miterlimit:10;stroke-width:3px"/><line x1="180.94" y1="166.39" x2="451.45" y2="254.38" style="fill:none;stroke:#ccc;stroke-miterlimit:10;stroke-width:3px;stroke-dasharray:11.914405822753906,4.964335918426514"/><line x1="453.81" y1="255.14" x2="459.52" y2="257" style="fill:none;stroke:#ccc;stroke-miterlimit:10;stroke-width:3px"/><line x1="457.52" y1="168" x2="452.59" y2="171.42" style="fill:none;stroke:#ccc;stroke-miterlimit:10;stroke-width:3px"/><line x1="448.38" y1="174.35" x2="264.55" y2="302.11" style="fill:none;stroke:#ccc;stroke-miterlimit:10;stroke-width:3px;stroke-dasharray:12.295169830322266,5.122987270355225"/><line x1="262.44" y1="303.58" x2="257.52" y2="307" style="fill:none;stroke:#ccc;stroke-miterlimit:10;stroke-width:3px"/><line x1="171.52" y1="263" x2="176.69" y2="259.97" style="fill:none;stroke:#ccc;stroke-miterlimit:10;stroke-width:3px"/><line x1="180.95" y1="257.47" x2="338.21" y2="165.28" style="fill:none;stroke:#ccc;stroke-miterlimit:10;stroke-width:3px;stroke-dasharray:11.855802536010742,4.93991756439209"/><line x1="340.34" y1="164.03" x2="345.52" y2="161" style="fill:none;stroke:#ccc;stroke-miterlimit:10;stroke-width:3px"/><line x1="226.52" y1="62" x2="227.28" y2="67.95" style="fill:none;stroke:#ccc;stroke-miterlimit:10;stroke-width:3px"/><line x1="227.91" y1="72.83" x2="257.44" y2="302.61" style="fill:none;stroke:#ccc;stroke-miterlimit:10;stroke-width:3px;stroke-dasharray:11.804829597473145,4.918679237365723"/><line x1="257.75" y1="305.05" x2="258.52" y2="311" style="fill:none;stroke:#ccc;stroke-miterlimit:10;stroke-width:3px"/><line x1="171.52" y1="94" x2="317.02" y2="177.5" style="fill:none;stroke:#6d6d6d;stroke-miterlimit:10;stroke-width:3px"/><line x1="316.02" y1="336.5" x2="317.51" y2="176" style="fill:none;stroke:#6d6d6d;stroke-miterlimit:10;stroke-width:3px"/><line x1="456.46" y1="93.92" x2="385.53" y2="52.97" style="fill:none;stroke:#6d6d6d;stroke-miterlimit:10;stroke-width:3px"/><line x1="455.52" y1="169" x2="455.52" y2="93" style="fill:none;stroke:#6d6d6d;stroke-miterlimit:10;stroke-width:3px"/><line x1="365.52" y1="310" x2="315.16" y2="337.69" style="fill:none;stroke:#6d6d6d;stroke-miterlimit:10;stroke-width:3px"/><line x1="257.52" y1="307" x2="316.58" y2="337.69" style="fill:none;stroke:#6d6d6d;stroke-miterlimit:10;stroke-width:3px"/><line x1="423.02" y1="113.5" x2="456.02" y2="93.5" style="fill:none;stroke:#6d6d6d;stroke-miterlimit:10;stroke-width:3px"/><line x1="171.02" y1="163.5" x2="171.63" y2="93.07" style="fill:none;stroke:#6d6d6d;stroke-miterlimit:10;stroke-width:3px"/><line x1="228.39" y1="61.13" x2="171.15" y2="94.18" style="fill:none;stroke:#6d6d6d;stroke-miterlimit:10;stroke-width:3px"/><line x1="317.31" y1="176.97" x2="334.02" y2="167.5" style="fill:none;stroke:#6d6d6d;stroke-miterlimit:10;stroke-width:3px"/></g><g id="Layer_4" data-name="Layer 4"><circle cx="176.02" cy="262.5" r="11.5" style="fill:#00505c"/><circle cx="314.02" cy="11.5" r="11.5" style="fill:#00505c"/><circle cx="340.02" cy="163.5" r="11.5" style="fill:#00505c"/><circle cx="171.02" cy="162.5" r="6.5" style="fill:#00505c"/><circle cx="227.02" cy="60.5" r="7.5" style="fill:#00505c"/><circle cx="459.52" cy="257" r="12" style="fill:#00505c"/><circle cx="456.52" cy="168" r="7" style="fill:#00505c"/><circle cx="424.52" cy="113" r="7" style="fill:#00505c"/><circle cx="366.02" cy="310.5" r="8.5" style="fill:#00505c"/><circle cx="257.52" cy="307" r="9" style="fill:#00505c"/><circle cx="386.52" cy="52" r="10" style="fill:#00505c"/></g><g id="Layer_3" data-name="Layer 3"><g style="isolation:isolate"><g style="isolation:isolate"><path d="M27,484.64a42.65,42.65,0,0,1-16.4-17.06q-5.94-11-5.93-25.4t5.93-25.39A42.67,42.67,0,0,1,27,399.72a46.32,46.32,0,0,1,23.66-6.06,46.35,46.35,0,0,1,23.66,6.06,42.74,42.74,0,0,1,16.4,17.07q5.93,11,5.93,25.39t-5.93,25.4a42.71,42.71,0,0,1-16.4,17.06,46.25,46.25,0,0,1-23.66,6.07A46.23,46.23,0,0,1,27,484.64Zm44.52-19.26q7.26-8.81,7.27-23.2T71.52,419q-7.26-8.81-20.86-8.8T29.79,419q-7.26,8.79-7.26,23.19t7.26,23.2q7.27,8.79,20.87,8.8T71.52,465.38Z" transform="translate(-4.67)" style="fill:#4d4d4d"/></g><g style="isolation:isolate"><path d="M156.77,425.78A29.1,29.1,0,0,1,167,438.32,45,45,0,0,1,167,473a29.08,29.08,0,0,1-10.26,12.53,28,28,0,0,1-16.26,4.66,35.86,35.86,0,0,1-10.2-1.26,27.14,27.14,0,0,1-8.07-4.07V521.1H105.71V422.18H119l1.74,6.14a31.31,31.31,0,0,1,8.93-5.4,29.89,29.89,0,0,1,10.8-1.8A28,28,0,0,1,156.77,425.78Zm-7.33,45.06q4.13-5.73,4.13-15.19t-4.13-15.2A13.36,13.36,0,0,0,138,434.72q-8.26,0-12.39,5.59t-4.14,15.34q0,9.72,4.14,15.33t12.39,5.6A13.34,13.34,0,0,0,149.44,470.84Z" transform="translate(-4.67)" style="fill:#4d4d4d"/><path d="M192,485.44a30.52,30.52,0,0,1-12.26-12.66,38.06,38.06,0,0,1-4.07-17.67,37.68,37.68,0,0,1,3.86-17.06,30.27,30.27,0,0,1,11.2-12.33,32.17,32.17,0,0,1,17.47-4.6q9.33,0,15.79,3.86a25,25,0,0,1,9.74,10.4A32.47,32.47,0,0,1,237,450.05a44.47,44.47,0,0,1-1.06,9.06H192.9q1.32,8.81,6.93,13.13a21.33,21.33,0,0,0,13.46,4.34,38.49,38.49,0,0,0,20-5.47l.8,14a43.36,43.36,0,0,1-9.93,3.66,51,51,0,0,1-12.33,1.4Q200.22,490.17,192,485.44Zm28.19-37.53a15.14,15.14,0,0,0-2.93-9.2c-1.95-2.66-5-4-9.06-4a13.62,13.62,0,0,0-9.87,3.6,18.39,18.39,0,0,0-5.06,9.59Z" transform="translate(-4.67)" style="fill:#4d4d4d"/><path d="M298.48,429.38q6.39,8.26,6.4,22.27v37.19H288.35V453q0-9.33-3.14-13.8t-10.06-4.46a15.79,15.79,0,0,0-12.53,5.73v48.39H246.09V422.18h15.46l.27,4.67a31.14,31.14,0,0,1,17.86-5.73Q292.08,421.12,298.48,429.38Z" transform="translate(-4.67)" style="fill:#4d4d4d"/></g></g><g style="isolation:isolate"><path d="M318.31,420.65h10.1l33.85,51.41V420.65h9.42v68.68h-7.95l-36.1-54.25v54.25h-9.32Z" transform="translate(-4.67)" style="fill:#00505c"/><path d="M387.38,420.65h41.89v8.44H396.7V449.2h25.9v8.44H396.7v23.25h33.45v8.44H387.38Z" transform="translate(-4.67)" style="fill:#00505c"/><path d="M448.06,482.71q-7.12-8-7.12-22.52V420.65h9.32v37q0,11.28,4,17.95t15.1,6.68q11.1,0,15.11-6.72t4-17.91v-37h9.32v39.54q0,14.52-7.12,22.52t-21.34,8Q455.17,490.7,448.06,482.71Z" transform="translate(-4.67)" style="fill:#00505c"/><path d="M512.76,420.65H535q11.19,0,17.46,5.15t6.28,15.75q0,13.74-12,19.33l15.41,28.45H550.82l-13.93-26.78H522.57v26.78h-9.81Zm22.17,33.56q6.87,0,10.5-3.34t3.63-9.32q0-6-3.58-9.27T534.93,429H522.57v25.22Z" transform="translate(-4.67)" style="fill:#00505c"/><path d="M584.33,486.29a30.71,30.71,0,0,1-12-12.51,43,43,0,0,1,0-37.58,30.75,30.75,0,0,1,12-12.5,36.89,36.89,0,0,1,35,0,30.75,30.75,0,0,1,12,12.5,43,43,0,0,1,0,37.58,30.71,30.71,0,0,1-12,12.51,37,37,0,0,1-35,0Zm30.56-8.1a21.48,21.48,0,0,0,8.09-9.51,36,36,0,0,0,0-27.37,21.45,21.45,0,0,0-8.09-9.52,26.21,26.21,0,0,0-26.1,0,21.45,21.45,0,0,0-8.09,9.52,36,36,0,0,0,0,27.37,21.48,21.48,0,0,0,8.09,9.51,26.14,26.14,0,0,0,26.1,0Z" transform="translate(-4.67)" style="fill:#00505c"/></g></g></g></g></g></svg>